<svg xmlns="http://www.w3.org/2000/svg" width="900" height="520" viewBox="0 0 900 520">
<rect width="100%" height="100%" fill="white"/>
<text x="450.0" y="32" text-anchor="middle" font-family="Helvetica,Arial,sans-serif" font-size="22" font-weight="700">Runtime Comparison: isPrime0 vs isPrime1</text>
<line x1="80" y1="450" x2="870" y2="450" stroke="#222"/>
<line x1="80" y1="60" x2="80" y2="450" stroke="#222"/>
<line x1="80.00" y1="450" x2="80.00" y2="456" stroke="#222"/>
<text x="80.00" y="472" text-anchor="middle" font-family="Helvetica,Arial,sans-serif" font-size="11">100k</text>
<line x1="167.78" y1="450" x2="167.78" y2="456" stroke="#222"/>
<text x="167.78" y="472" text-anchor="middle" font-family="Helvetica,Arial,sans-serif" font-size="11">200k</text>
<line x1="255.56" y1="450" x2="255.56" y2="456" stroke="#222"/>
<text x="255.56" y="472" text-anchor="middle" font-family="Helvetica,Arial,sans-serif" font-size="11">300k</text>
<line x1="343.33" y1="450" x2="343.33" y2="456" stroke="#222"/>
<text x="343.33" y="472" text-anchor="middle" font-family="Helvetica,Arial,sans-serif" font-size="11">400k</text>
<line x1="431.11" y1="450" x2="431.11" y2="456" stroke="#222"/>
<text x="431.11" y="472" text-anchor="middle" font-family="Helvetica,Arial,sans-serif" font-size="11">500k</text>
<line x1="518.89" y1="450" x2="518.89" y2="456" stroke="#222"/>
<text x="518.89" y="472" text-anchor="middle" font-family="Helvetica,Arial,sans-serif" font-size="11">600k</text>
<line x1="606.67" y1="450" x2="606.67" y2="456" stroke="#222"/>
<text x="606.67" y="472" text-anchor="middle" font-family="Helvetica,Arial,sans-serif" font-size="11">700k</text>
<line x1="694.44" y1="450" x2="694.44" y2="456" stroke="#222"/>
<text x="694.44" y="472" text-anchor="middle" font-family="Helvetica,Arial,sans-serif" font-size="11">800k</text>
<line x1="782.22" y1="450" x2="782.22" y2="456" stroke="#222"/>
<text x="782.22" y="472" text-anchor="middle" font-family="Helvetica,Arial,sans-serif" font-size="11">900k</text>
<line x1="870.00" y1="450" x2="870.00" y2="456" stroke="#222"/>
<text x="870.00" y="472" text-anchor="middle" font-family="Helvetica,Arial,sans-serif" font-size="11">1000k</text>
<line x1="74" y1="450.00" x2="80" y2="450.00" stroke="#222"/>
<line x1="80" y1="450.00" x2="870" y2="450.00" stroke="#e7e7e7"/>
<text x="70" y="454.00" text-anchor="end" font-family="Helvetica,Arial,sans-serif" font-size="11">0</text>
<line x1="74" y1="372.00" x2="80" y2="372.00" stroke="#222"/>
<line x1="80" y1="372.00" x2="870" y2="372.00" stroke="#e7e7e7"/>
<text x="70" y="376.00" text-anchor="end" font-family="Helvetica,Arial,sans-serif" font-size="11">2635</text>
<line x1="74" y1="294.00" x2="80" y2="294.00" stroke="#222"/>
<line x1="80" y1="294.00" x2="870" y2="294.00" stroke="#e7e7e7"/>
<text x="70" y="298.00" text-anchor="end" font-family="Helvetica,Arial,sans-serif" font-size="11">5270</text>
<line x1="74" y1="216.00" x2="80" y2="216.00" stroke="#222"/>
<line x1="80" y1="216.00" x2="870" y2="216.00" stroke="#e7e7e7"/>
<text x="70" y="220.00" text-anchor="end" font-family="Helvetica,Arial,sans-serif" font-size="11">7905</text>
<line x1="74" y1="138.00" x2="80" y2="138.00" stroke="#222"/>
<line x1="80" y1="138.00" x2="870" y2="138.00" stroke="#e7e7e7"/>
<text x="70" y="142.00" text-anchor="end" font-family="Helvetica,Arial,sans-serif" font-size="11">10540</text>
<line x1="74" y1="60.00" x2="80" y2="60.00" stroke="#222"/>
<line x1="80" y1="60.00" x2="870" y2="60.00" stroke="#e7e7e7"/>
<text x="70" y="64.00" text-anchor="end" font-family="Helvetica,Arial,sans-serif" font-size="11">13175</text>
<text x="475.0" y="496" text-anchor="middle" font-family="Helvetica,Arial,sans-serif" font-size="14">N</text>
<text x="22" y="255.0" transform="rotate(-90 22,255.0)" text-anchor="middle" font-family="Helvetica,Arial,sans-serif" font-size="14">Time (ms)</text>
<polyline fill="none" stroke="#1f77b4" stroke-width="2.5" points="80.00,445.71 167.78,433.87 255.56,415.04 343.33,387.39 431.11,355.84 518.89,316.67 606.67,272.06 694.44,218.78 782.22,160.05 870.00,95.45"/>
<polyline fill="none" stroke="#d62728" stroke-width="2.5" points="80.00,449.94 167.78,449.85 255.56,449.73 343.33,449.62 431.11,449.47 518.89,449.32 606.67,449.14 694.44,448.99 782.22,448.82 870.00,448.64"/>
<rect x="640" y="76" width="220" height="54" fill="white" stroke="#ccc"/>
<line x1="652" y1="94" x2="692" y2="94" stroke="#1f77b4" stroke-width="3"/>
<text x="700" y="98" font-family="Helvetica,Arial,sans-serif" font-size="12">isPrime0_ms</text>
<line x1="652" y1="114" x2="692" y2="114" stroke="#d62728" stroke-width="3"/>
<text x="700" y="118" font-family="Helvetica,Arial,sans-serif" font-size="12">isPrime1_ms</text>
</svg>